<?xml version="1.0" encoding="utf-8"?>
<!-- Generator: Adobe Illustrator 15.0.1, SVG Export Plug-In . SVG Version: 6.00 Build 0)  -->
<!DOCTYPE svg PUBLIC "-//W3C//DTD SVG 1.1//EN" "http://www.w3.org/Graphics/SVG/1.1/DTD/svg11.dtd">
<svg version="1.1" id="Layer_1" xmlns="http://www.w3.org/2000/svg" xmlns:xlink="http://www.w3.org/1999/xlink" x="0px" y="0px"
	 width="512px" height="512px" viewBox="0 0 512 512" enable-background="new 0 0 512 512" xml:space="preserve">
<path d="M490.635,39.143c-7.459-5.14-17.74-6.975-27.951-4.033L334.379,72.193
	c-0.839-0.312-138.951-40.389-138.951-40.389c-5.827-1.679-10.663-2.834-16.997-2.597c-6.334,0.237-11.163,0.918-16.995,2.597
	c0,0-98.147,22.79-134.719,34.469c-13.234,0.726-23.743,11.685-23.743,25.1L2.831,298.664C2.449,376.941,3.189,446.223,3.69,450.089
	c-0.238,2.925-0.117,5.866,0.735,8.793c4.245,14.687,21.328,22.657,38.147,17.812l135.868-39.266c0,0,138.647,39.844,140.031,40.062
	c7.176,3.9,16.271,5.122,25.357,2.509c0,0,138.863-40.345,140.057-40.813c0.068,0,0.13,0.018,0.2,0.018
	c14.685,0,26.584-11.906,26.584-26.584V64.794C510.652,52.402,502.128,42.068,490.635,39.143z M156.234,386.188L56.54,414.989
	V119.765l99.694-28.81V386.188z M304.627,416.234l-95.222-27.512V93.491l95.222,27.502V416.234z M457.481,389.512l-99.693,28.799
	V123.079l99.693-28.81V389.512z"/>
</svg>
