<?xml version="1.0" encoding="utf-8"?>
<!-- Generator: Adobe Illustrator 15.0.1, SVG Export Plug-In . SVG Version: 6.00 Build 0)  -->
<!DOCTYPE svg PUBLIC "-//W3C//DTD SVG 1.1//EN" "http://www.w3.org/Graphics/SVG/1.1/DTD/svg11.dtd">
<svg version="1.1" id="Layer_1" xmlns="http://www.w3.org/2000/svg" xmlns:xlink="http://www.w3.org/1999/xlink" x="0px" y="0px"
	 width="512px" height="512px" viewBox="0 0 512 512" enable-background="new 0 0 512 512" xml:space="preserve">
<path d="M256.723,52.843c0,0-261.383-120.965-253.849,109.912c7.459,228.485,220.214,325.4,251.697,334.574
	c0.25,0.47,0.502,0.79,0.763,0.79c0.293,0,0.833-0.118,1.389-0.234c0.572,0.116,1.104,0.234,1.399,0.234
	c0.267,0,0.517-0.32,0.769-0.79c31.482-9.174,244.237-106.089,251.69-334.574C518.121-68.123,256.723,52.843,256.723,52.843z
	 M258.182,405.229c-0.166,0.312-0.344,0.524-0.519,0.524c-0.192,0-0.546-0.063-0.931-0.149c-0.378,0.086-0.73,0.149-0.929,0.149
	c-0.177,0-0.347-0.214-0.513-0.524c-21.048-6.14-163.302-70.932-168.291-223.7c-5.029-154.371,169.733-33.448,169.733-33.448
	S431.5,27.147,426.46,181.529C421.462,334.297,279.234,399.1,258.182,405.229z"/>
</svg>
