<svg xmlns="http://www.w3.org/2000/svg" viewBox="0 0 512 512">
<g>
	<path d="M150.172,88.345h-36.277c-12.325,0-22.326,10.001-22.326,22.324c0,12.323,10.001,22.325,22.326,22.325
		h36.277c12.324,0,22.325-10.001,22.325-22.325C172.498,98.346,162.496,88.345,150.172,88.345z"/>
	<path d="M150.172,158.11h-36.277c-12.325,0-22.326,10.001-22.326,22.324c0,12.324,10.001,22.326,22.326,22.326
		h36.277c12.324,0,22.325-10.002,22.325-22.326C172.498,168.111,162.496,158.11,150.172,158.11z"/>
	<path d="M150.172,233.456h-36.277c-12.325,0-22.326,10.002-22.326,22.325c0,12.324,10.001,22.332,22.326,22.332
		h36.277c12.324,0,22.325-10.008,22.325-22.333C172.498,243.458,162.496,233.456,150.172,233.456z"/>
	<path d="M222.729,132.994h36.277c12.324,0,22.32-10.001,22.32-22.325c0-12.323-9.996-22.324-22.32-22.324h-36.277
		c-12.325,0-22.326,10.001-22.326,22.324C200.403,122.992,210.394,132.994,222.729,132.994z"/>
	<path d="M222.729,202.76h36.277c12.324,0,22.32-10.002,22.32-22.326c0-12.323-9.996-22.324-22.32-22.324h-36.277
		c-12.325,0-22.326,10.001-22.326,22.324C200.403,192.758,210.394,202.76,222.729,202.76z"/>
	<path d="M378.038,243.828c21.899,0,39.657,17.764,39.657,39.669c0,21.909-17.757,39.678-39.657,39.678
		c-21.911,0-39.68-17.769-39.68-39.678C338.358,261.592,356.127,243.828,378.038,243.828z"/>
	<path d="M378.038,145.072c-2.485,0-4.905,0.235-7.346,0.372V25.522c0,0,2.029-24.099-25.641-22.815
		s-2.17,0.082-3.249,0.136c-0.315-0.022-0.622-0.136-0.938-0.136H31.103c-10.786,0-19.534,11.473-19.534,25.638
		c0,0.764,0.12,1.499,0.179,2.246c-0.049,0.627-0.179,1.216-0.179,1.853v441.097c0,0.632,0.13,1.22,0.179,1.853
		c-0.06,0.741-0.179,1.482-0.179,2.244c0,14.161,8.748,25.643,19.534,25.643h309.764c6.128,0,11.533-3.795,15.119-9.605
		c8.981,10.104,16.689,16.058,22.042,16.058c28.702,0,124.934-170.75,124.934-239.729
		C502.961,201.01,447.019,145.072,378.038,145.072z M206.911,452.001h-44.649v-81.799h44.649V452.001z M245.98,452.001v-93.528
		c1.717-3.162,2.79-6.736,2.79-10.584c0-10.979-7.935-20.068-18.384-21.943c-1.275-0.239-2.59-0.381-3.94-0.381h-80.927
		c-0.48,0-0.927,0.106-1.396,0.142c-0.469-0.034-0.916-0.142-1.395-0.142c-10.787,0-19.534,8.73-19.534,19.533v106.903H62.846v-398
		h256.568v105.717c-28.941,15.402-50.973,41.902-60.74,73.754h-35.955c-12.325,0-22.326,9.996-22.326,22.325
		c0,12.318,10.001,22.326,22.326,22.326h30.783c4.066,44.747,39.236,121.129,72.342,173.878H245.98L245.98,452.001z
		 M378.038,434.276c-19.075,0-83.088-113.544-83.088-159.413c0-45.882,37.196-83.054,83.088-83.054
		c45.871,0,83.053,37.172,83.053,83.054C461.103,320.732,397.114,434.276,378.038,434.276z"/>
</g>
</svg>
