<?xml version="1.0" encoding="utf-8"?>
<!-- Generator: Adobe Illustrator 15.0.1, SVG Export Plug-In . SVG Version: 6.00 Build 0)  -->
<!DOCTYPE svg PUBLIC "-//W3C//DTD SVG 1.1//EN" "http://www.w3.org/Graphics/SVG/1.1/DTD/svg11.dtd">
<svg version="1.1" id="Layer_1" xmlns="http://www.w3.org/2000/svg" xmlns:xlink="http://www.w3.org/1999/xlink" x="0px" y="0px"
	 width="512px" height="512px" viewBox="0 0 512 512" enable-background="new 0 0 512 512" xml:space="preserve">
<g>
	<g>
		<path d="M259.686,169.022c-47.356,0-85.737,38.381-85.737,85.737c0,47.347,38.381,85.736,85.737,85.736
			c47.353,0,85.739-38.392,85.739-85.736C345.425,207.403,307.037,169.022,259.686,169.022z M259.686,295.828
			c-22.683,0-41.063-18.393-41.063-41.069c0-22.683,18.382-41.065,41.063-41.065c22.685,0,41.063,18.382,41.063,41.065
			C300.748,277.438,282.369,295.828,259.686,295.828z"/>
		<path d="M487.504,230.263h-21.168c-11.301-96.201-88.06-172.362-184.6-182.524V24.496
			c0-13.53-10.965-24.496-24.5-24.496c-13.531,0-24.498,10.965-24.498,24.496v23.989c-94.207,12.205-168.6,87.224-179.7,181.778
			H26.973c-13.529,0-24.496,10.964-24.496,24.496c0,13.529,10.966,24.495,24.496,24.495h26.066
			c11.1,94.559,85.493,169.577,179.701,181.778v23.987c0,13.531,10.965,24.496,24.496,24.496c13.535,0,24.5-10.965,24.5-24.496
			v-23.241c96.55-10.173,173.311-86.319,184.601-182.524h21.168c13.527,0,24.496-10.966,24.496-24.495
			C512,241.227,501.031,230.263,487.504,230.263z M259.686,398.06c-79.138,0-143.301-64.159-143.301-143.301
			c0-79.143,64.163-143.302,143.301-143.302c77.024,0,139.689,60.829,142.989,137.039c-0.544,2.019-0.909,4.085-0.909,6.263
			c0,2.177,0.365,4.253,0.909,6.263C399.375,337.23,336.718,398.06,259.686,398.06z"/>
	</g>
</g>
</svg>
