<?xml version="1.0" encoding="utf-8"?>
<!-- Generator: Adobe Illustrator 15.0.1, SVG Export Plug-In . SVG Version: 6.00 Build 0)  -->
<!DOCTYPE svg PUBLIC "-//W3C//DTD SVG 1.1//EN" "http://www.w3.org/Graphics/SVG/1.1/DTD/svg11.dtd">
<svg version="1.1" id="Layer_1" xmlns="http://www.w3.org/2000/svg" xmlns:xlink="http://www.w3.org/1999/xlink" x="0px" y="0px"
	 width="512px" height="512px" viewBox="0 0 512 512" enable-background="new 0 0 512 512" xml:space="preserve">
<path d="M466.028,210.799H301.533V46.304c0-24.825-20.139-44.958-44.958-44.958
	c-24.824,0-44.957,20.133-44.957,44.958V210.8H47.123c-24.827,0-44.959,20.132-44.959,44.958c0,24.832,20.132,44.958,44.959,44.958
	h164.495v164.496c0,24.832,20.133,44.958,44.957,44.958c24.821,0,44.958-20.126,44.958-44.958V300.703h164.495
	c24.819,0,44.959-20.139,44.959-44.958C510.987,230.919,490.849,210.799,466.028,210.799z"/>
</svg>
