<?xml version="1.0" encoding="utf-8"?>
<!-- Generator: Adobe Illustrator 15.0.1, SVG Export Plug-In . SVG Version: 6.00 Build 0)  -->
<!DOCTYPE svg PUBLIC "-//W3C//DTD SVG 1.1//EN" "http://www.w3.org/Graphics/SVG/1.1/DTD/svg11.dtd">
<svg version="1.1" id="Layer_1" xmlns="http://www.w3.org/2000/svg" xmlns:xlink="http://www.w3.org/1999/xlink" x="0px" y="0px"
	 width="512px" height="512px" viewBox="0 0 512 512" enable-background="new 0 0 512 512" xml:space="preserve">
<g enable-background="new    ">
	<path d="M202.019,459.217c0,28.831,24.007,52.199,53.619,52.199c29.619,0,53.62-23.368,53.62-52.199v-4.738H202.005
		v4.738H202.019z"/>
	<path d="M413.667,313.346V217.67c0-73.862-49.851-135.958-117.688-154.839V43.5
		c0-23.062-18.709-41.766-41.766-41.766c-23.063,0-41.762,18.704-41.762,41.766v18.598C143.166,80.026,91.916,142.781,91.916,217.67
		v96.253c-27.368,4.138-48.407,27.563-48.407,56.08c0,30.145,23.498,54.558,53.121,56.559c1.284,0.079,2.513,0.39,3.826,0.39
		h308.395h1.972c31.44,0,56.946-25.503,56.946-56.947C467.769,339.525,443.776,314.855,413.667,313.346z"/>
</g>
</svg>
