<?xml version="1.0" encoding="utf-8"?>
<!-- Generator: Adobe Illustrator 15.0.1, SVG Export Plug-In . SVG Version: 6.00 Build 0)  -->
<!DOCTYPE svg PUBLIC "-//W3C//DTD SVG 1.1//EN" "http://www.w3.org/Graphics/SVG/1.1/DTD/svg11.dtd">
<svg version="1.1" id="Layer_1" xmlns="http://www.w3.org/2000/svg" xmlns:xlink="http://www.w3.org/1999/xlink" x="0px" y="0px"
	 width="512px" height="512px" viewBox="0 0 512 512" enable-background="new 0 0 512 512" xml:space="preserve">
<g>
	<path d="M511.072,255.045c0,20.02-16.231,36.246-36.247,36.246h-71.664H283.729H250.12l114.229,114.224
		c14.15,14.15,14.15,37.105,0,51.257c-14.165,14.152-37.11,14.152-51.262,0l-175.9-175.914
		c-7.114-7.104-10.638-16.474-10.599-25.803c-0.039-9.329,3.474-18.673,10.599-25.807l175.9-175.91
		c14.161-14.151,37.105-14.151,51.262,0c14.15,14.166,14.15,37.111,0,51.262L250.13,218.817h33.587h119.437h71.663
		C494.831,218.817,511.072,235.029,511.072,255.045z"/>
	<path d="M137.919,413.208c0,17.057-13.822,30.889-30.889,30.889H40.308c-1.485,0-2.904-0.239-4.324-0.433
		c-1.438,0.212-2.856,0.433-4.334,0.433c-16.38,0-29.654-13.271-29.654-29.652V95.665c0-16.38,13.274-29.654,29.654-29.654
		c1.478,0,2.906,0.229,4.334,0.435c1.429-0.198,2.839-0.435,4.324-0.435h66.723c17.066,0,30.889,13.828,30.889,30.89
		s-13.822,30.889-30.889,30.889H61.313v254.528h45.717C124.097,382.318,137.919,396.15,137.919,413.208z"/>
</g>
</svg>
