<?xml version="1.0" encoding="utf-8"?>
<!-- Generator: Adobe Illustrator 15.0.1, SVG Export Plug-In . SVG Version: 6.00 Build 0)  -->
<!DOCTYPE svg PUBLIC "-//W3C//DTD SVG 1.1//EN" "http://www.w3.org/Graphics/SVG/1.1/DTD/svg11.dtd">
<svg version="1.1" id="Layer_1" xmlns="http://www.w3.org/2000/svg" xmlns:xlink="http://www.w3.org/1999/xlink" x="0px" y="0px"
	 width="512px" height="512px" viewBox="0 0 512 512" enable-background="new 0 0 512 512" xml:space="preserve">
<g>
	<path d="M236.463,390.075c5.495,5.489,12.737,8.098,19.941,7.928c7.196,0.17,14.45-2.438,19.939-7.928
		l66.351-66.358c10.665-10.656,10.665-27.929,0-38.584c-10.646-10.656-27.919-10.656-38.575,0l-15.712,15.711v-253.5
		c0-17.677-14.329-32.012-32.001-32.012c-17.678,0-32.012,14.335-32.012,32.012v253.491l-15.703-15.702
		c-10.66-10.656-27.928-10.656-38.584,0c-10.66,10.655-10.653,27.928,0,38.584L236.463,390.075z"/>
	<path d="M510.653,166.284c0-13.861-11.235-25.098-25.099-25.098h-98.208c-13.861,0-25.099,11.236-25.099,25.098
		c0,13.862,11.236,25.098,25.099,25.098h73.109v252.069H398.26h-2.184h-8.729h-89.479h-172.41h-8.729h-64.38V191.382h73.11
		c13.862,0,25.099-11.236,25.099-25.098c0-13.861-11.236-25.098-25.099-25.098H27.25c-13.862,0-25.098,11.236-25.098,25.098v296.808
		c0,0.932,0.175,1.824,0.273,2.736c-0.098,0.904-0.273,1.792-0.273,2.729c0,13.861,11.236,25.099,25.098,25.099h89.478h8.729
		h172.411h89.479h8.729h2.184h87.295c13.862,0,25.099-11.236,25.099-25.099c0-0.937-0.18-1.823-0.272-2.729
		c0.094-0.912,0.272-1.79,0.272-2.736V166.284L510.653,166.284z"/>
</g>
</svg>
