<?xml version="1.0" encoding="utf-8"?>
<!-- Generator: Adobe Illustrator 15.0.1, SVG Export Plug-In . SVG Version: 6.00 Build 0)  -->
<!DOCTYPE svg PUBLIC "-//W3C//DTD SVG 1.1//EN" "http://www.w3.org/Graphics/SVG/1.1/DTD/svg11.dtd">
<svg version="1.1" id="Layer_1" xmlns="http://www.w3.org/2000/svg" xmlns:xlink="http://www.w3.org/1999/xlink" x="0px" y="0px"
	 width="512px" height="512px" viewBox="0 0 512 512" enable-background="new 0 0 512 512" xml:space="preserve">
<g>
	<path d="M38.252,218.817h71.663h119.436h33.586L148.72,104.599c-14.15-14.151-14.15-37.096,0-51.262
		c14.156-14.151,37.101-14.151,51.262,0l175.9,175.91c7.125,7.133,10.638,16.478,10.6,25.807c0.038,9.33-3.484,18.698-10.6,25.803
		l-175.9,175.915c-14.15,14.151-37.097,14.151-51.262,0c-14.15-14.151-14.15-37.106,0-51.258l114.229-114.224H229.34H109.906H38.242
		c-20.016,0-36.247-16.227-36.247-36.246C1.995,235.029,18.236,218.817,38.252,218.817z"/>
	<path d="M406.037,382.318h45.717V127.79h-45.717c-17.066,0-30.889-13.828-30.889-30.889
		c0-17.062,13.821-30.89,30.889-30.89h66.723c1.485,0,2.896,0.237,4.324,0.435c1.428-0.208,2.856-0.435,4.334-0.435
		c16.38,0,29.654,13.273,29.654,29.654v318.779c0,16.381-13.274,29.652-29.654,29.652c-1.478,0-2.896-0.221-4.334-0.433
		c-1.42,0.191-2.839,0.433-4.324,0.433h-66.723c-17.066,0-30.889-13.832-30.889-30.889
		C375.148,396.15,388.971,382.318,406.037,382.318z"/>
</g>
</svg>
