<?xml version="1.0" encoding="utf-8"?>
<!-- Generator: Adobe Illustrator 15.0.1, SVG Export Plug-In . SVG Version: 6.00 Build 0)  -->
<!DOCTYPE svg PUBLIC "-//W3C//DTD SVG 1.1//EN" "http://www.w3.org/Graphics/SVG/1.1/DTD/svg11.dtd">
<svg version="1.1" id="Layer_1" xmlns="http://www.w3.org/2000/svg" xmlns:xlink="http://www.w3.org/1999/xlink" x="0px" y="0px"
	 width="512px" height="512px" viewBox="0 0 512 512" enable-background="new 0 0 512 512" xml:space="preserve">
<g>
	<path d="M292.346,214.537c5.842,6.563,12.404,12.089,19.544,16.407c9.74,2.324,19.113,5.579,27.919,9.884
		c2.691,0.341,5.396,0.525,8.151,0.525c46.046,0,83.375-46.833,83.375-104.586c0-57.74-37.329-104.566-83.375-104.566
		c-11.421,0-22.287,2.894-32.196,8.091c11.748,20.45,18.757,45.468,18.757,72.586C334.52,154.933,317.823,192.026,292.346,214.537z"
		/>
	<path d="M407.761,235.001c-9.895,12.784-22.378,22.34-36.357,27.485c26.842,24.558,43.761,59.787,43.761,99.047
		c0,38.406-16.196,72.954-42.016,97.447h12.97c62.438,0,113.053-50.614,113.053-113.055
		C499.17,290.891,459.846,245.108,407.761,235.001z"/>
	<path d="M195.071,250.646c21.218,0,40.833-8.426,56.953-22.668c25.479-22.51,42.171-59.604,42.171-101.659
		c0-27.118-7.008-52.137-18.754-72.586c-18.002-31.292-47.248-51.742-80.371-51.742c-54.749,0-99.126,55.667-99.126,124.328
		C95.945,194.979,140.322,250.646,195.071,250.646z"/>
	<path d="M331.08,275.928c-9.425-8.611-20.003-15.976-31.594-21.659c-8.807-4.305-18.18-7.561-27.92-9.884
		c-1.81-0.433-3.568-0.931-5.407-1.299c-3.622,4.699-7.624,8.939-11.813,12.876c-16.539,15.568-37.002,24.927-59.276,24.927
		c-2.192,0-4.331-0.236-6.484-0.421c-25.301-2.073-48.008-15.922-64.613-37.383c-61.915,12.023-108.675,66.47-108.675,131.888
		c0,74.24,60.175,134.409,134.407,134.409h90.728c35.833,0,68.307-14.109,92.392-36.962c25.817-24.493,42.015-59.04,42.015-97.447
		C374.841,335.716,357.923,300.484,331.08,275.928z"/>
</g>
</svg>
