<?xml version="1.0" encoding="utf-8"?>
<!-- Generator: Adobe Illustrator 15.0.1, SVG Export Plug-In . SVG Version: 6.00 Build 0)  -->
<!DOCTYPE svg PUBLIC "-//W3C//DTD SVG 1.1//EN" "http://www.w3.org/Graphics/SVG/1.1/DTD/svg11.dtd">
<svg version="1.1" id="Layer_1" xmlns="http://www.w3.org/2000/svg" xmlns:xlink="http://www.w3.org/1999/xlink" x="0px" y="0px"
	 width="512px" height="512px" viewBox="0 0 512 512" enable-background="new 0 0 512 512" xml:space="preserve">
<path d="M231.742,118.696c-72.462,0-118.586,64.088-118.586,139.549c0,83.271,62.285,137.764,126.975,137.764
	c30.547,0,61.688-12.584,83.856-44.932l1.205,5.993c8.974,31.148,34.731,44.926,70.668,44.926
	c66.49,0,114.997-57.495,114.997-146.132c0-146.135-107.798-253.953-250.937-253.963C116.17,1.901,1.776,115.1,1.776,260.04
	c0,142.559,108.403,248.562,250.95,248.562c46.708,0,105.998-17.379,140.744-44.918c0,0,8.511-8.426,8.439-21.065
	c0-15.82-12.834-28.646-28.653-28.646c-2.917,0-5.675,0.568-8.323,1.372c0,0-58.305,33.928-112.207,35.771
	c-107.209,0-189.269-81.465-189.269-191.073c0-110.808,88.037-201.243,196.454-201.243c120.379,0,189.244,87.444,189.244,198.85
	c0,55.097-22.742,93.432-45.515,93.432c-11.975,0-20.358-6.576-20.358-27.553l-0.83-183.447
	c-3.688-17.643-19.32-30.896-38.052-30.896c-18.736,0-34.371,13.253-38.051,30.896h-0.332c0,0-0.5,5.97-0.5,7.982
	c0,1.768,0.159,3.497,0.39,5.201C304.05,149.599,276.096,118.696,231.742,118.696z M248.53,326.532
	c-31.742,0-50.314-33.539-50.314-71.274c0-35.331,19.161-65.284,49.117-65.284c34.14,0,53.306,29.347,53.306,65.89
	C300.641,294.186,282.068,326.532,248.53,326.532z"/>
</svg>
