<?xml version="1.0" encoding="utf-8"?>
<!-- Generator: Adobe Illustrator 15.0.1, SVG Export Plug-In . SVG Version: 6.00 Build 0)  -->
<!DOCTYPE svg PUBLIC "-//W3C//DTD SVG 1.1//EN" "http://www.w3.org/Graphics/SVG/1.1/DTD/svg11.dtd">
<svg version="1.1" id="Layer_1" xmlns="http://www.w3.org/2000/svg" xmlns:xlink="http://www.w3.org/1999/xlink" x="0px" y="0px"
	 width="512px" height="512px" viewBox="0 0 512 512" enable-background="new 0 0 512 512" xml:space="preserve">
<path d="M256.054,2C115.783,2,2.069,115.711,2.069,255.985c0,140.268,113.713,253.98,253.984,253.98
	c140.275,0,253.985-113.712,253.985-253.98C510.039,115.711,396.329,2,256.054,2z M293.814,394.744
	c0,19.117-16.903,34.621-37.761,34.621c-20.857,0-37.764-15.504-37.764-34.621V237.388c0-19.117,16.907-34.616,37.764-34.616
	c20.857,0,37.761,15.499,37.761,34.616V394.744z M256.054,178.739c-26.546,0-48.063-21.518-48.063-48.064
	c0-26.547,21.517-48.065,48.063-48.065c26.551,0,48.063,21.518,48.063,48.065C304.116,157.221,282.605,178.739,256.054,178.739z"/>
</svg>
