<?xml version="1.0" encoding="utf-8"?>
<!-- Generator: Adobe Illustrator 15.0.1, SVG Export Plug-In . SVG Version: 6.00 Build 0)  -->
<!DOCTYPE svg PUBLIC "-//W3C//DTD SVG 1.1//EN" "http://www.w3.org/Graphics/SVG/1.1/DTD/svg11.dtd">
<svg version="1.1" id="Layer_1" xmlns="http://www.w3.org/2000/svg" xmlns:xlink="http://www.w3.org/1999/xlink" x="0px" y="0px"
	 width="512px" height="512px" viewBox="0 0 512 512" enable-background="new 0 0 512 512" xml:space="preserve">
<path d="M402.352,499.494c-43.57,25.425-115.664-89.402-153.738-88.126
	c-38.083,1.276-124.718,105.165-159.769,76.678c-35.058-28.485,48.976-132.633,36.316-173.461
	C112.503,273.757-8.747,229.62,2.852,186.334c11.602-43.295,150.15-3,176.197-19.062c26.047-16.064,32.2-157.591,84.182-155.941
	c51.979,1.605,45.352,134.441,72.582,161.674c27.232,27.234,158.663-8.595,174.334,31.872
	c15.672,40.477-121.027,87.391-131.334,119.006C368.483,355.457,445.928,474.067,402.352,499.494z"/>
</svg>
