<?xml version="1.0" encoding="utf-8"?>
<!-- Generator: Adobe Illustrator 15.0.1, SVG Export Plug-In . SVG Version: 6.00 Build 0)  -->
<!DOCTYPE svg PUBLIC "-//W3C//DTD SVG 1.1//EN" "http://www.w3.org/Graphics/SVG/1.1/DTD/svg11.dtd">
<svg version="1.1" id="Layer_1" xmlns="http://www.w3.org/2000/svg" xmlns:xlink="http://www.w3.org/1999/xlink" x="0px" y="0px"
	 width="512px" height="512px" viewBox="0 0 512 512" enable-background="new 0 0 512 512" xml:space="preserve">
<path d="M479.69,282.336c-12.995-12.995-12.995-34.054,0-47.044l27.608-27.614c0.776-0.767,1.65-1.329,2.465-2.009
	c-6.289-32.117-18.429-62.09-35.394-88.768c-1.318,0.155-2.619,0.407-3.987,0.407h-39.051c-18.372,0-33.268-14.896-33.268-33.272
	V44.98c0-1.786,0.252-3.508,0.523-5.217C372.473,22.45,343.086,9.771,311.497,2.837c-1.183,1.748-2.512,3.426-4.065,4.969
	L279.822,35.41c-12.994,12.989-34.063,12.999-47.052,0L205.156,7.807c-1.62-1.621-3.021-3.353-4.23-5.188
	c-31.196,6.716-60.265,18.987-86.171,35.834c0.417,2.106,0.653,4.29,0.653,6.527v39.045c0,18.376-14.895,33.272-33.267,33.272
	H43.095c-2.038,0-4.004-0.252-5.935-0.611c-16.493,25.913-28.469,54.91-34.927,85.984c1.034,0.815,2.116,1.548,3.066,2.503
	l27.62,27.615c12.999,12.989,12.989,34.058,0,47.042l-27.62,27.609c-0.893,0.894-1.906,1.582-2.877,2.34
	c6.836,32.142,19.594,62.052,37.145,88.563c0.597-0.02,1.165-0.176,1.766-0.176h39.056c18.377,0,33.274,14.897,33.274,33.269v39.061
	c0,0.573-0.141,1.099-0.171,1.67c27.169,17.876,57.875,30.725,90.889,37.354c0.285-0.311,0.485-0.658,0.795-0.97l27.615-27.62
	c12.989-12.983,34.059-12.983,47.042,0l27.62,27.62c0.242,0.232,0.397,0.515,0.631,0.757c32.354-6.638,62.498-19.265,89.234-36.753
	c-0.012-0.396-0.128-0.774-0.128-1.183V432.31c0-18.37,14.907-33.269,33.277-33.269h39.063c0.591,0,1.135,0.155,1.726,0.175
	c17.605-26.378,30.474-56.142,37.461-88.157c-0.444-0.406-0.971-0.707-1.396-1.145L479.69,282.336z M255.698,349.297
	c-51.686,0-93.581-41.895-93.581-93.581c0-51.687,41.895-93.582,93.581-93.582c51.687,0,93.581,41.895,93.581,93.582
	C349.279,307.412,307.385,349.297,255.698,349.297z"/>
</svg>
