<?xml version="1.0" encoding="utf-8"?>
<!-- Generator: Adobe Illustrator 15.0.1, SVG Export Plug-In . SVG Version: 6.00 Build 0)  -->
<!DOCTYPE svg PUBLIC "-//W3C//DTD SVG 1.1//EN" "http://www.w3.org/Graphics/SVG/1.1/DTD/svg11.dtd">
<svg version="1.1" id="Layer_1" xmlns="http://www.w3.org/2000/svg" xmlns:xlink="http://www.w3.org/1999/xlink" x="0px" y="0px"
	 width="512px" height="512px" viewBox="0 0 512 512" enable-background="new 0 0 512 512" xml:space="preserve">
<g>
	<polygon fill="#231F20" points="231.493,215.708 171.424,155.639 191.108,135.95 165.081,109.922 186.439,88.557 210.464,112.588 
		247.842,75.211 174.421,1.791 137.044,39.167 161.076,63.193 139.71,84.553 113.683,58.525 24.245,147.962 101.67,225.387 
		130.038,197.02 190.106,257.089 	"/>
	<path d="M467.102,401.928l-92.119-92.107l-90.771,90.77l92.12,92.109c25.064,25.064,65.704,25.064,90.77,0
		C492.166,467.633,492.166,426.993,467.102,401.928z"/>
	<path d="M240.402,396.354l19.79-19.801l90.766-90.77l10.686-10.682c35.651,8.158,76.523-3.097,106.456-33.035
		c30.553-30.551,41.69-72.497,32.555-108.646l-66.603,66.596l-68.07-68.078l66.589-66.595
		c-36.139-9.131-78.094,2.002-108.646,32.553c-29.934,29.944-41.183,70.816-33.02,106.456l-35.385,35.379l-41.38,41.382
		l-44.485,44.487c-29.699-6.414-61.928,1.838-85.007,24.922c-36.132,36.127-36.132,94.697,0,130.824
		c36.126,36.127,94.698,36.127,130.824,0C238.544,458.275,246.807,426.042,240.402,396.354z M121.354,444.637
		c-15.845-15.852-15.845-41.547,0.005-57.398c15.845-15.84,41.547-15.84,57.398,0c15.845,15.842,15.845,41.548,0,57.398
		C162.907,460.487,137.205,460.487,121.354,444.637z"/>
	<path d="M5.557,278.781c-4.004,9.347,62.746-52.061,62.746-52.061l-45.396-48.063
		C22.907,178.658,9.562,269.439,5.557,278.781z"/>
</g>
</svg>
