<?xml version="1.0" encoding="utf-8"?>
<!-- Generator: Adobe Illustrator 15.0.1, SVG Export Plug-In . SVG Version: 6.00 Build 0)  -->
<!DOCTYPE svg PUBLIC "-//W3C//DTD SVG 1.1//EN" "http://www.w3.org/Graphics/SVG/1.1/DTD/svg11.dtd">
<svg version="1.1" id="Layer_1" xmlns="http://www.w3.org/2000/svg" xmlns:xlink="http://www.w3.org/1999/xlink" x="0px" y="0px"
	 width="512px" height="512px" viewBox="0 0 512 512" enable-background="new 0 0 512 512" xml:space="preserve">
<g>
	<path d="M74.197,402.137c29.477,0,53.372,23.897,53.372,53.374c0,29.475-23.896,53.369-53.372,53.369
		c-29.479,0-53.373-23.896-53.373-53.369C20.824,426.034,44.717,402.137,74.197,402.137z"/>
	<path d="M74.197,203.204c29.477,0,53.372,23.898,53.372,53.372c0,29.486-23.896,53.372-53.372,53.372
		c-29.479,0-53.373-23.886-53.373-53.372C20.824,227.103,44.717,203.204,74.197,203.204z"/>
	<path d="M74.197,4.271c29.477,0,53.372,23.898,53.372,53.372c0,29.475-23.896,53.375-53.372,53.375
		c-29.479,0-53.373-23.9-53.373-53.375C20.824,28.17,44.717,4.271,74.197,4.271z"/>
	<path d="M448.126,422.293h-97.618h-40.674h-83.34c-24.704,0-44.736,20.015-44.736,44.711
		c0,24.71,20.032,44.725,44.736,44.725h83.34h40.674h97.618c24.697,0,44.725-20.015,44.725-44.725
		C492.851,442.308,472.823,422.293,448.126,422.293z"/>
	<path d="M448.126,214.903h-97.618h-40.674h-83.34c-24.704,0-44.736,20.016-44.736,44.725
		c0,24.696,20.032,44.724,44.736,44.724h83.34h40.674h97.618c24.697,0,44.725-20.026,44.725-44.724
		C492.851,234.918,472.823,214.903,448.126,214.903z"/>
	<path d="M226.505,90.86h83.354h40.647h97.618c24.708,0,44.747-20.014,44.747-44.724
		c0-24.696-20.039-44.723-44.747-44.723h-97.618h-40.647h-83.354c-24.704,0-44.736,20.027-44.736,44.723
		C181.769,70.846,201.801,90.86,226.505,90.86z"/>
</g>
</svg>
