<?xml version="1.0" encoding="utf-8"?>
<!-- Generator: Adobe Illustrator 15.0.1, SVG Export Plug-In . SVG Version: 6.00 Build 0)  -->
<!DOCTYPE svg PUBLIC "-//W3C//DTD SVG 1.1//EN" "http://www.w3.org/Graphics/SVG/1.1/DTD/svg11.dtd">
<svg version="1.1" id="Layer_1" xmlns="http://www.w3.org/2000/svg" xmlns:xlink="http://www.w3.org/1999/xlink" x="0px" y="0px"
	 width="512px" height="512px" viewBox="0 0 512 512" enable-background="new 0 0 512 512" xml:space="preserve">
<path d="M498.688,437.153l-53.92-53.902c23.511-37.112,37.181-81.097,37.181-128.29
	c0-132.602-107.521-240.111-240.128-240.111C109.19,14.85,1.671,122.367,1.671,254.961c0,132.632,107.52,240.147,240.149,240.147
	c61.923,0,118.368-23.459,160.954-61.955l49.967,49.965c14.563,14.557,36.646,16.073,49.334,3.386
	C514.762,473.799,513.241,451.724,498.688,437.153z M241.81,421.432c-91.935,0-166.458-74.527-166.458-166.46
	c0-91.938,74.523-166.459,166.458-166.459c91.933,0,166.461,74.521,166.461,166.459C408.271,346.904,333.734,421.432,241.81,421.432
	z"/>
</svg>
