<?xml version="1.0" encoding="utf-8"?>
<!-- Generator: Adobe Illustrator 15.0.1, SVG Export Plug-In . SVG Version: 6.00 Build 0)  -->
<!DOCTYPE svg PUBLIC "-//W3C//DTD SVG 1.1//EN" "http://www.w3.org/Graphics/SVG/1.1/DTD/svg11.dtd">
<svg version="1.1" id="Layer_1" xmlns="http://www.w3.org/2000/svg" xmlns:xlink="http://www.w3.org/1999/xlink" x="0px" y="0px"
	 width="512px" height="512px" viewBox="0 0 512 512" enable-background="new 0 0 512 512" xml:space="preserve">
<path d="M388.666,287.829c-51.674-11.073-88.602,47.981-88.602,47.981L181.95,206.607
	c0,0,62.75-29.533,70.129-84.902c7.39-55.356-110.731-125.5-169.794-118.12C23.218,10.97,1.186,82.712,1.071,121.705
	C0.951,160.703,15.839,247.219,115.5,372.718c99.657,125.509,243.619,140.278,295.305,136.583
	c51.677-3.693,95.144-70.022,99.666-110.729C514.996,357.864,440.342,298.904,388.666,287.829z M451.043,404.756
	c-2.854,29.671-22.404,56.154-55.789,61.996c-47.266,6.377-145.022-27.838-226.034-108.506
	C109.707,304.498,52.197,152.273,51.013,120.239C49.83,88.206,63.42,58.253,96.469,54.12c33.075-4.138,99.185,35.132,95.061,66.119
	c0.048,22.554-24.391,42.106-39.26,47.532c-73.935,25.523,135.708,220.556,151.662,221.404c15.951,0.841,49.994-52.62,78.922-46.415
	C411.777,348.947,453.898,375.096,451.043,404.756z"/>
</svg>
