<?xml version="1.0" encoding="utf-8"?>
<!-- Generator: Adobe Illustrator 15.0.1, SVG Export Plug-In . SVG Version: 6.00 Build 0)  -->
<!DOCTYPE svg PUBLIC "-//W3C//DTD SVG 1.1//EN" "http://www.w3.org/Graphics/SVG/1.1/DTD/svg11.dtd">
<svg version="1.1" id="Layer_1" xmlns="http://www.w3.org/2000/svg" xmlns:xlink="http://www.w3.org/1999/xlink" x="0px" y="0px"
	 width="512px" height="512px" viewBox="0 0 512 512" enable-background="new 0 0 512 512" xml:space="preserve">
<g>
	<polygon fill="#231F20" points="258.232,167.941 91.352,331.48 91.352,501.086 212.875,501.086 212.875,410.223 301.795,410.223 
		301.795,501.086 423.318,501.086 423.318,335.207 259.436,167.941 	"/>
	<path d="M499.58,241.375L290.76,28.246c-8.465-8.631-19.637-12.966-30.82-13.025
		c-11.189-0.168-22.46,3.949-31.082,12.395l-213.14,208.81c-17.147,16.8-17.431,44.309-0.631,61.479
		c16.805,17.147,44.338,17.426,61.49,0.637l182.267-178.624l178.633,182.308c16.787,17.158,44.322,17.438,61.479,0.637
		C516.102,286.059,516.381,258.531,499.58,241.375z"/>
</g>
</svg>
