<?xml version="1.0" encoding="utf-8"?>
<!-- Generator: Adobe Illustrator 15.0.1, SVG Export Plug-In . SVG Version: 6.00 Build 0)  -->
<!DOCTYPE svg PUBLIC "-//W3C//DTD SVG 1.1//EN" "http://www.w3.org/Graphics/SVG/1.1/DTD/svg11.dtd">
<svg version="1.1" id="Layer_1" xmlns="http://www.w3.org/2000/svg" xmlns:xlink="http://www.w3.org/1999/xlink" x="0px" y="0px"
	 width="512px" height="512px" viewBox="0 0 512 512" enable-background="new 0 0 512 512" xml:space="preserve">
<path d="M413.935,206.224c-17.286-31.373-50.657-52.641-89.001-52.641c-1.66,0-3.285,0.176-4.935,0.249
	c-21.903-38.884-63.509-65.183-111.318-65.183c-60.908,0-111.773,42.662-124.571,99.703C36.121,203.457,1.322,248.279,1.322,301.249
	c0,65.351,52.982,118.344,118.347,118.344c11.701,0,26.08,0.169,41.872,0.434c7.384,0.116,15.028,0.255,23.012,0.417
	c8.272-4.129,14.008-12.571,14.008-22.44v-24.505v-57.182c0-5.088-4.146-13.777-4.146-13.777l44.989-44.99l44.991,44.99
	c-2.606,3.961-4.144,8.689-4.144,13.777v57.182v24.505c0,12.314,8.865,22.521,20.558,24.673c2.695,0.045,5.374,0.081,8.024,0.117
	c42.891,0.571,80.551,0.557,99.88-1.097c49.214-4.211,101.585-58.054,101.585-114.149
	C510.299,253.199,467.592,208.947,413.935,206.224z M393.001,373.497H330.52v-25.062c8.493,7.328,21.322,7.058,29.375-1.019
	c8.456-8.456,8.456-22.153,0-30.61L254.82,211.729c-4.253-4.246-9.836-6.369-15.416-6.317c-5.571-0.052-11.151,2.071-15.411,6.317
	L118.912,316.807c-8.441,8.457-8.441,22.155,0,30.611c8.083,8.075,20.876,8.348,29.381,1.018v25.063h-33.859
	c-37.02,0-67.028-30.939-67.028-69.122s30.008-69.114,67.028-69.114h15.69c-1.983-7.015-3.119-14.373-3.119-22.009
	c0-44.521,36.101-80.631,80.638-80.631c35.542,0,65.651,23.026,76.378,54.948c6.404-1.633,13.067-2.591,19.965-2.591
	c33.789,0,62.679,20.799,74.68,50.284H393c37.025,0,67.028,30.932,67.028,69.114S430.026,373.497,393.001,373.497z"/>
</svg>
