<?xml version="1.0" encoding="utf-8"?>
<!-- Generator: Adobe Illustrator 15.0.1, SVG Export Plug-In . SVG Version: 6.00 Build 0)  -->
<!DOCTYPE svg PUBLIC "-//W3C//DTD SVG 1.1//EN" "http://www.w3.org/Graphics/SVG/1.1/DTD/svg11.dtd">
<svg version="1.1" id="Layer_1" xmlns="http://www.w3.org/2000/svg" xmlns:xlink="http://www.w3.org/1999/xlink" x="0px" y="0px"
	 width="512px" height="512px" viewBox="0 0 512 512" enable-background="new 0 0 512 512" xml:space="preserve">
<g>
	<path d="M468.768,265.592h-50.186v-50.187c0-22.74-18.438-41.178-41.179-41.178
		c-22.739,0-41.18,18.438-41.18,41.178v50.187H286.04c-22.735,0-41.173,18.438-41.173,41.178c0,22.74,18.438,41.18,41.173,41.18
		h50.185v50.185c0,22.741,18.439,41.18,41.18,41.18s41.179-18.438,41.179-41.18v-50.185h50.186c22.739,0,41.18-18.438,41.18-41.18
		C509.948,284.029,491.507,265.592,468.768,265.592z"/>
	<path d="M162.284,274.268H38.75c-20.845,0-37.75,16.909-37.75,37.75c0,20.84,16.905,37.75,37.75,37.75h123.534
		c20.846,0,37.75-16.91,37.75-37.75C200.034,291.156,183.13,274.268,162.284,274.268z"/>
	<path d="M38.75,250.24h96.079h27.456h96.08c20.84,0,37.751-16.91,37.751-37.75c0-20.84-16.911-37.75-37.751-37.75
		h-96.08h-27.456H38.75C17.905,174.74,1,191.65,1,212.49C1,233.33,17.905,250.24,38.75,250.24z"/>
	<path d="M38.75,147.295h96.079h27.456h96.08c20.84,0,37.751-16.91,37.751-37.75s-16.911-37.75-37.751-37.75h-96.08
		h-27.456H38.75C17.905,71.795,1,88.704,1,109.544S17.905,147.295,38.75,147.295z"/>
</g>
</svg>
