<?xml version="1.0" encoding="utf-8"?>
<!-- Generator: Adobe Illustrator 15.0.1, SVG Export Plug-In . SVG Version: 6.00 Build 0)  -->
<!DOCTYPE svg PUBLIC "-//W3C//DTD SVG 1.1//EN" "http://www.w3.org/Graphics/SVG/1.1/DTD/svg11.dtd">
<svg version="1.1" id="Layer_1" xmlns="http://www.w3.org/2000/svg" xmlns:xlink="http://www.w3.org/1999/xlink" x="0px" y="0px"
	 width="512px" height="512px" viewBox="0 0 512 512" enable-background="new 0 0 512 512" xml:space="preserve">
<g>
	<path d="M55.896,206.451C26.133,206.451,2,230.584,2,260.348s24.133,53.896,53.896,53.896
		c29.764,0,53.896-24.134,53.896-53.896C109.792,230.584,85.661,206.451,55.896,206.451z"/>
	<path d="M254.787,206.451c-29.77,0-53.897,24.133-53.897,53.896s24.127,53.896,53.897,53.896
		c29.756,0,53.891-24.134,53.891-53.896C308.678,230.584,284.543,206.451,254.787,206.451z"/>
	<path d="M455.677,206.451c-29.774,0-53.896,24.133-53.896,53.896s24.121,53.896,53.896,53.896
		c29.766,0,53.896-24.134,53.896-53.896C509.573,230.584,485.441,206.451,455.677,206.451z"/>
</g>
</svg>
