<?xml version="1.0" encoding="utf-8"?>
<!-- Generator: Adobe Illustrator 15.0.1, SVG Export Plug-In . SVG Version: 6.00 Build 0)  -->
<!DOCTYPE svg PUBLIC "-//W3C//DTD SVG 1.1//EN" "http://www.w3.org/Graphics/SVG/1.1/DTD/svg11.dtd">
<svg version="1.1" id="Layer_1" xmlns="http://www.w3.org/2000/svg" xmlns:xlink="http://www.w3.org/1999/xlink" x="0px" y="0px"
	 width="512px" height="512px" viewBox="0 0 512 512" enable-background="new 0 0 512 512" xml:space="preserve">
<g>
	<path d="M479.413,15.315c-3.189,0-445.07,0.206-445.979,0.27c-0.897-0.085-1.779-0.27-2.703-0.27
		C14.314,15.315,1,28.625,1,45.047v289.205c0,16.43,13.314,29.73,29.732,29.73c0.697,0,1.341-0.156,2.038-0.198
		c0.675,0.042,1.324,0.198,2.026,0.198h187.851v107.716c0,8.215,5.57,15.268,13.72,19.068c0.608,0.761,1.126,1.583,1.822,2.291
		c10.558,10.568,28.741,9.471,40.629-2.418l126.645-126.657h71.248c0.475,0,0.896-0.114,1.352-0.137
		c0.452,0.021,0.887,0.137,1.352,0.137c16.418,0,29.73-13.303,29.73-29.73V45.047C509.145,28.625,495.831,15.315,479.413,15.315z
		 M449.681,304.52h-48.651c-9.978,0-18.763,4.965-24.146,12.502c-1.741,1.183-3.432,2.535-4.981,4.098l-95.194,95.191v-78.953
		c0-6.812-3.885-12.828-9.84-16.873c-5.036-7.949-13.847-13.26-23.941-13.26H60.48V85.581h389.211V304.52H449.681z"/>
	<path d="M145.551,170.083c16.229,0,29.389,13.155,29.389,29.388c0,16.229-13.16,29.384-29.389,29.384
		c-16.228,0-29.382-13.155-29.382-29.384C116.169,183.238,129.324,170.083,145.551,170.083z"/>
	<path d="M255.072,170.083c16.228,0,29.384,13.155,29.384,29.388c0,16.229-13.156,29.384-29.384,29.384
		s-29.384-13.155-29.384-29.384C225.688,183.238,238.845,170.083,255.072,170.083z"/>
	<path d="M364.612,170.083c16.219,0,29.374,13.155,29.374,29.388c0,16.229-13.155,29.384-29.374,29.384
		c-16.238,0-29.394-13.155-29.394-29.384C335.22,183.238,348.374,170.083,364.612,170.083z"/>
</g>
</svg>
