<?xml version="1.0" encoding="utf-8"?>
<!-- Generator: Adobe Illustrator 15.0.1, SVG Export Plug-In . SVG Version: 6.00 Build 0)  -->
<!DOCTYPE svg PUBLIC "-//W3C//DTD SVG 1.1//EN" "http://www.w3.org/Graphics/SVG/1.1/DTD/svg11.dtd">
<svg version="1.1" id="Layer_1" xmlns="http://www.w3.org/2000/svg" xmlns:xlink="http://www.w3.org/1999/xlink" x="0px" y="0px"
	 width="512px" height="512px" viewBox="0 0 512 512" enable-background="new 0 0 512 512" xml:space="preserve">
<g>
	<path d="M258.473,148.57c40.459,0,73.27-32.796,73.27-73.269c0-40.472-32.811-73.268-73.27-73.268
		c-40.464,0-73.27,32.796-73.27,73.268C185.203,115.774,218,148.57,258.473,148.57z M258.473,44.451
		c17.034,0,30.848,13.806,30.848,30.842s-13.813,30.842-30.848,30.842c-17.038,0-30.851-13.806-30.851-30.842
		S241.435,44.451,258.473,44.451z"/>
	<path d="M322.491,365c2.68-16.918,4.288-29.584,4.288-29.584c29.14-14.791,49.154-44.956,49.154-79.851
		c0-49.45-40.097-89.551-89.55-89.551H230.56c-49.458,0-89.55,40.101-89.55,89.551c0,39.01,25,72.109,59.812,84.395
		c0,0,0.069,10.058,0.754,24.095c-80.791,9.396-139.64,38.215-139.64,72.352c0,41.749,87.997,75.595,196.544,75.595
		c108.551,0,196.547-33.846,196.547-75.595C455.018,403.287,399.566,375.23,322.491,365z M225.936,306.051
		c-5.816-24.367-33.755-25.604-33.755-47.628c0-27.912,22.629-50.541,50.541-50.541h31.514c27.912,0,50.537,22.629,50.537,50.541
		c0,19.697-15.938,24.368-27.732,45.066c-5.506,9.64-7.432,34.452-10.466,58.202c-9.195-0.518-18.535-0.871-28.095-0.871
		c-6.585,0-13.083,0.146-19.5,0.382C234.884,339.787,231.741,330.4,225.936,306.051z M258.473,468.969
		c-70.657,0-127.929-14.563-127.929-32.563c0-13.139,31.736-19.044,74.689-29.583c42.958-10.549,109.526,0.373,109.526,0.373
		s71.633,16.381,71.633,29.21C386.4,454.405,329.124,468.969,258.473,468.969z"/>
</g>
</svg>
