<?xml version="1.0" encoding="utf-8"?>
<!-- Generator: Adobe Illustrator 15.0.1, SVG Export Plug-In . SVG Version: 6.00 Build 0)  -->
<!DOCTYPE svg PUBLIC "-//W3C//DTD SVG 1.1//EN" "http://www.w3.org/Graphics/SVG/1.1/DTD/svg11.dtd">
<svg version="1.1" id="Layer_1" xmlns="http://www.w3.org/2000/svg" xmlns:xlink="http://www.w3.org/1999/xlink" x="0px" y="0px"
	 width="512px" height="512px" viewBox="0 0 512 512" enable-background="new 0 0 512 512" xml:space="preserve">
<path d="M256.877,1.211C116.078,1.211,1.939,115.363,1.939,256.149c0,140.8,114.131,254.952,254.938,254.952
	c140.799,0,254.939-114.151,254.939-254.952C511.816,115.363,397.677,1.211,256.877,1.211z M353.151,198.302
	c-2.969,0-5.771-0.582-8.464-1.425l-0.102,0.227c-0.351-0.206-6.563-3.104-8.924-4.955c-26.564-14.129-56.01-22.928-75.48-22.928
	c-20.517,0-34.463,7.367-34.463,22.078c0,49.947,144.419,22.065,144.03,119.641c-0.009,46.842-36.016,74.717-85.57,80.527v22.599
	h-0.139c-1.324,11.574-11.04,20.611-22.979,20.611s-21.656-9.037-22.979-20.611h-0.371v-23.372
	c-35.231-5.037-68.915-20.141-93.693-41.037c0,0-10.556-9.225-10.573-23.299c-0.018-14.073,12.365-27.629,27.627-27.629
	c2.347,0,7.151,0.912,7.344,0.987c0.044,0.056,0.099,0.108,0.143,0.173c16.178,9.762,4.604,5.172,18.066,16.02
	c13.46,10.847,56.191,24.449,77.807,24.449c25.172,0,40.275-9.285,40.275-25.937c0-51.104-144.416-21.298-144.416-117.318
	c0-41.422,30.198-70.064,77.428-77.814V98.232h0.328c1.157-11.758,10.95-20.968,23.014-20.968c12.063,0,21.855,9.209,23.014,20.968
	h0.109v19.501c28.903,2.864,56.735,12.341,78.52,25.32c11.018,3.933,18.954,14.363,18.954,26.745
	C381.657,185.53,368.898,198.302,353.151,198.302z"/>
</svg>
