<?xml version="1.0" encoding="utf-8"?>
<!-- Generator: Adobe Illustrator 15.0.1, SVG Export Plug-In . SVG Version: 6.00 Build 0)  -->
<!DOCTYPE svg PUBLIC "-//W3C//DTD SVG 1.1//EN" "http://www.w3.org/Graphics/SVG/1.1/DTD/svg11.dtd">
<svg version="1.1" id="Layer_1" xmlns="http://www.w3.org/2000/svg" xmlns:xlink="http://www.w3.org/1999/xlink" x="0px" y="0px"
	 width="512px" height="512px" viewBox="0 0 512 512" enable-background="new 0 0 512 512" xml:space="preserve">
<path d="M409.241,19.229L256.445,172.031L103.636,19.229c-23.065-23.068-60.446-23.068-83.513,0
	c-23.067,23.059-23.067,60.447,0,83.522l152.809,152.808L20.123,408.354c-23.067,23.074-23.067,60.465,0,83.521
	c23.067,23.06,60.448,23.06,83.513,0l152.809-152.793l152.83,152.812c23.059,23.073,60.43,23.073,83.504,0
	c23.059-23.075,23.059-60.448,0-83.54L339.951,255.559L492.762,102.75c23.062-23.058,23.062-60.448,0-83.522
	C469.704-3.823,432.314-3.823,409.241,19.229z"/>
</svg>
